# xmcd
#
# Track frame offsets:
#	150
#	13790
#	31908
#	48590
#	65719
#	83871
#	101476
#	117217
#	133136
#	150335
#	163485
#	182641
#	198498
#	219704
#
# Disc length: 3127 seconds
#
# Revision: 1
# Processed by: cddbd v1.5.2PL0 Copyright (c) Steve Scherf et al.
# Submitted via: audiograbber 1.83.01
#
DISCID=c70c350e
DTITLE=01 - Mr Music Country 2015-12
DYEAR=1900
DGENRE=Country
TTITLE0=Kellie Pickler - Rockaway (The rocking chair song)
TTITLE1=Alan Jackson - Who's cheatin' who
TTITLE2=Kristen Kelly - He loves to make me cry
TTITLE3=John Anderson - When it comes to you
TTITLE4=Martina McBride - This one's for the girls
TTITLE5=Jake Owen - Startin' with me
TTITLE6=Patty Loveless - That's the kind of mood I'm in
TTITLE7=Keith Anderson - C'mon
TTITLE8=Rosanne Cash - The way we make a broken heart
TTITLE9=Brooks and Dunn - Brand new man
TTITLE10=Pat Green - Footsteps of our fathers
TTITLE11=Tammy Cochran - I cry
TTITLE12=Montgomery Genrtry - My town
TTITLE13=Miranda Lambert - Fastest girl in town
EXTD=
EXTT0=
EXTT1=
EXTT2=
EXTT3=
EXTT4=
EXTT5=
EXTT6=
EXTT7=
EXTT8=
EXTT9=
EXTT10=
EXTT11=
EXTT12=
EXTT13=
PLAYORDER=
